<svg width="24" height="27" viewBox="0 0 24 27" fill="none" xmlns="http://www.w3.org/2000/svg">
<path d="M0 19.0974V7.82804C0 7.67228 0.0845443 7.52895 0.221565 7.4506L6.92001 3.63905C7.058 3.56071 7.22904 3.56071 7.36606 3.64001L17.248 9.34633C17.5405 9.51548 17.5396 9.93111 17.2461 10.0993L14.5426 11.6444C14.4046 11.7237 14.2326 11.7227 14.0946 11.6434L4.3963 6.03071C4.25928 5.9514 4.08922 5.95044 3.95123 6.02785L3.85502 6.08231C3.71703 6.15969 3.63248 6.30399 3.63248 6.46068V17.5351C3.63248 17.6909 3.54794 17.8342 3.41092 17.9125L0.665666 19.4748C0.369273 19.643 0 19.4328 0 19.0974Z" fill="url(#paint0_linear_148_2938)"/>
<path d="M12.6942 0.0587166L22.6355 5.66282C22.7725 5.74021 22.858 5.88354 22.859 6.03927L22.8901 13.648C22.8911 13.8057 22.8055 13.951 22.6666 14.0283L12.7175 19.6181C12.4221 19.7834 12.0558 19.5761 12.0538 19.2416L12.0354 16.1687C12.0344 16.011 12.1199 15.8648 12.2598 15.7865L22.0349 10.3056C22.1739 10.2283 22.2594 10.083 22.2594 9.92631V9.81738C22.2594 9.66069 22.1739 9.51639 22.0359 9.43901L12.2647 3.93333C12.1277 3.85594 12.0422 3.71261 12.0412 3.55591L12.0286 0.439012C12.0276 0.10267 12.3978 -0.108499 12.6942 0.0587166Z" fill="url(#paint1_linear_148_2938)"/>
<path d="M23.3294 20.3749L13.4435 26.0735C13.3065 26.1519 13.1384 26.1538 13.0004 26.0764L6.26891 22.3222C6.12995 22.2448 6.04443 22.0996 6.04443 21.9419L6.05415 10.6754C6.05415 10.342 6.42051 10.1317 6.71593 10.2961L9.43789 11.8077C9.57782 11.8851 9.66334 12.0303 9.66334 12.188L9.6439 23.2529C9.6439 23.4096 9.72845 23.5548 9.86741 23.6322L9.96362 23.6857C10.1016 23.7631 10.2717 23.7621 10.4087 23.6838L20.1245 18.0835C20.2615 18.0052 20.4306 18.0033 20.5676 18.0807L23.3255 19.6191C23.6209 19.7853 23.6238 20.2048 23.3294 20.3749Z" fill="url(#paint2_linear_148_2938)"/>
<defs>
<linearGradient id="paint0_linear_148_2938" x1="8.73341" y1="3.58095" x2="8.73341" y2="19.5338" gradientUnits="userSpaceOnUse">
<stop stop-color="#940569"/>
<stop offset="1" stop-color="#4B208B"/>
</linearGradient>
<linearGradient id="paint1_linear_148_2938" x1="17.4592" y1="19.6782" x2="17.4592" y2="0.000431188" gradientUnits="userSpaceOnUse">
<stop stop-color="#940569"/>
<stop offset="1" stop-color="#4B208B"/>
</linearGradient>
<linearGradient id="paint2_linear_148_2938" x1="14.7963" y1="26.1333" x2="14.7963" y2="10.2387" gradientUnits="userSpaceOnUse">
<stop stop-color="#4B208B"/>
<stop offset="1" stop-color="#940569"/>
</linearGradient>
</defs>
</svg>
